M48
;FILE_FORMAT=3:3
METRIC,000.000
;TYPE=PLATED
T01C0.457
T02C0.965
;TYPE=NON_PLATED
T03C2.500
%
T01
X+057658Y+046990
X+057150Y+071120
X+056515Y+077470
X+056388Y+089027
X+058674Y+100584
X+067204Y+059596
X+067310Y+055245
Y+066675
X+063500Y+066040
X+066040Y+073660
X+067310Y+071120
X+066675Y+078740
X+072390Y+050165
X+071120Y+048260
Y+051435
X+072390Y+056515
X+069850Y+058420
X+072390Y+054610
X+073660Y+059055
X+072390Y+066675
X+069850Y+064135
X+071120Y+062865
X+069850Y+069850
X+071120Y+074930
X+073660Y+071120
X+074930Y+078740
X+072390Y+080010
X+069850Y+085725
X+073025Y+088900
X+081280Y+048895
X+078740Y+065405
X+080010Y+073025
X+082550
X+078105Y+081915
X+080010Y+078740
Y+081915
X+080645Y+093345
X+087630Y+052070
X+085725Y+057150
X+086995Y+067310
X+085725Y+066040
X+085090Y+062230
X+087630Y+069850
X+088265Y+074930
X+085090Y+074295
X+088265Y+082550
X+089535Y+077470
X+085090Y+090170
X+088265Y+089535
X+087175Y+085273
X+088900Y+094615
X+090170Y+095885
X+094615Y+047625
Y+049530
X+097155Y+050800
Y+057785
Y+054610
X+093345Y+063500
X+094615Y+071120
X+093345Y+089535
X+097155
X+094615Y+097155
X+093345Y+094615
X+097790
X+102870Y+048895
X+100965Y+047625
X+105410Y+050165
X+102235Y+057150
X+104140Y+059690
X+100330Y+063500
X+105410Y+066040
X+104140Y+062230
X+103505Y+073660
X+104775Y+080010
X+100965Y+089535
X+102235Y+085090
X+103505Y+089535
X+102235Y+088265
X+105410Y+093980
X+104775Y+092710
X+108966Y+051562
X+109855Y+057150
X+111760Y+056134
X+109220Y+067310
Y+063500
X+108585Y+073660
X+109220Y+082550
Y+090170
X+111760Y+093980
X+112218Y+096520
X+059690Y+060960
X+059944Y+099568
X+069850Y+061595
X+072390Y+092075
X+071120Y+069215
X+080645Y+060325
Y+052705
X+077470Y+053340
X+086224Y+076397
X+089535Y+068580
X+097155Y+046355
Y+092075
Y+083820
X+094615Y+076200
X+102235Y+046355
X+103505Y+091440
X+104902Y+098298
X+111760Y+053721
X+109220Y+076835
Y+084455
X+110490Y+092075
X+061722Y+046990
X+076200Y+048260
X+090805Y+049530
X+092075Y+048260
X+083820Y+051435
X+069215Y+054610
X+076200Y+058420
X+092075Y+054610
X+076200Y+065405
X+068580Y+072390
X+076835Y+073025
X+090805Y+073660
Y+071120
X+067945Y+080010
X+076835Y+078740
X+083185Y+078105
Y+081280
X+091440Y+088265
X+076200Y+086995
X+090805
X+076835Y+094615
X+084455Y+095885
X+098425Y+066675
X+099060Y+062230
X+098425Y+073660
X+106680Y+069850
Y+073025
Y+074930
X+106045Y+077470
X+090805Y+060960
X+083185Y+060325
X+083820Y+053340
X+091440Y+083820
X+068580Y+076200
X+069215Y+067945
X+083820Y+068580
T02
X+058420Y+057150
Y+054610
Y+064770
Y+062230
Y+072390
Y+069850
Y+080010
Y+077470
Y+087630
Y+085090
Y+095250
Y+092710
X+060960Y+054610
Y+057150
Y+062230
Y+064770
Y+069850
Y+072390
Y+077470
Y+080010
Y+085090
Y+087630
Y+092710
Y+095250
X+058420Y+074930
Y+067310
Y+059690
Y+052070
Y+090170
Y+082550
X+060960Y+052070
Y+059690
Y+067310
Y+074930
Y+082550
Y+090170
T03
X+110490Y+048260
Y+099060
T00
M30
